<?xml version="1.0" encoding="UTF-8" standalone="no"?>
<!DOCTYPE svg PUBLIC "-//W3C//DTD SVG 1.1//EN" "http://www.w3.org/Graphics/SVG/1.1/DTD/svg11.dtd">
<svg version="1.1" xmlns="http://www.w3.org/2000/svg" xmlns:xlink="http://www.w3.org/1999/xlink" preserveAspectRatio="xMidYMid meet" viewBox="0 0 640 640" width="640" height="640"><defs><path d="M261.84 369.7L277.8 369.7L277.8 374.29L237.92 374.29L237.92 369.7L253.87 369.7L253.87 313.25L208.57 261.2L307.14 261.2L261.84 313.25L261.84 369.7ZM217.98 257.44L217.98 252.86L297.73 252.86L297.73 257.44L217.98 257.44Z" id="amm1jBMQj"></path><path d="M283.52 257.86L268.12 238.57L277.36 250L253.16 299.29L273.4 245.71L283.52 257.86Z" id="cDGRizxv7"></path><path d="" id="f1e7Jn1EKu"></path><path d="M267.48 272.62C261.98 284.14 256.8 293.16 255.9 292.73C255.01 292.3 258.74 282.6 264.24 271.08C269.73 259.55 274.92 250.54 275.81 250.97C276.71 251.39 272.97 261.09 267.48 272.62Z" id="aZBBgF8wK"></path><path d="M261.54 287.19C260.77 288.44 258.92 288.69 257.43 287.76C255.93 286.83 255.34 285.06 256.11 283.82C256.88 282.58 258.73 282.32 260.23 283.25C261.72 284.18 262.31 285.95 261.54 287.19Z" id="a7nDMRfmgX"></path><path d="M270.91 254.64C271.35 254.8 271.58 255.3 271.41 255.74C269.45 260.96 263.87 275.8 261.91 281.02C261.74 281.46 261.25 281.68 260.81 281.52C260.65 281.46 260.97 281.58 260.81 281.52C260.36 281.35 260.14 280.86 260.31 280.41C262.27 275.2 267.84 260.35 269.8 255.14C269.97 254.7 270.46 254.47 270.91 254.64C271.07 254.7 270.75 254.58 270.91 254.64Z" id="h1f1xiUuHy"></path><path d="M283.77 258.98C282.99 259.59 278.37 255.04 273.46 248.82C268.55 242.61 265.19 237.06 265.97 236.45C266.75 235.83 271.36 240.38 276.27 246.6C281.19 252.82 284.54 258.37 283.77 258.98Z" id="bDSwtp3n"></path><path d="M273.14 255.9C271.89 259.17 270.13 261.54 269.2 261.18C268.28 260.83 268.54 257.89 269.79 254.62C271.04 251.35 272.8 248.98 273.72 249.33C274.65 249.69 274.39 252.63 273.14 255.9Z" id="bcKjEWVVR"></path><path d="M273.42 252.49C273.23 253.09 272.58 253.42 271.98 253.23C271.76 253.16 272.2 253.3 271.98 253.23C271.38 253.04 271.05 252.39 271.24 251.79C271.55 250.81 272.14 248.96 272.46 247.98C272.65 247.38 273.29 247.05 273.89 247.24C274.11 247.31 273.68 247.17 273.89 247.24C274.5 247.43 274.83 248.08 274.64 248.68C274.32 249.66 273.73 251.51 273.42 252.49Z" id="d1meSngcj"></path><path d="M275.83 251.93C275.83 253.39 275.32 254.58 274.69 254.58C274.06 254.58 273.55 253.39 273.55 251.93C273.55 250.46 274.06 249.27 274.69 249.27C275.32 249.27 275.83 250.46 275.83 251.93Z" id="a1BtxJUcOd"></path><path d="M272.56 279.35C269.34 285.68 263.02 288.93 258.45 286.6C253.88 284.28 252.78 277.26 256 270.94C259.21 264.61 265.53 261.36 270.1 263.68C274.67 266 275.77 273.02 272.56 279.35Z" id="c5qeRBrgm"></path><path d="M281 234.55C281.46 234.72 281.7 235.24 281.53 235.7C280.14 239.44 276.27 249.81 274.88 253.54C274.71 254.01 274.19 254.24 273.73 254.07C273.22 253.88 272.55 253.63 272.05 253.45C271.58 253.27 271.35 252.76 271.52 252.29C272.91 248.56 276.77 238.19 278.17 234.45C278.34 233.99 278.86 233.75 279.32 233.92C279.82 234.11 280.5 234.36 281 234.55Z" id="a1GYzwD29i"></path></defs><g><g><g><g><filter id="shadow11205853" x="152.57" y="196.86" width="230.57" height="233.43" filterUnits="userSpaceOnUse" primitiveUnits="userSpaceOnUse"><feFlood></feFlood><feComposite in2="SourceAlpha" operator="in"></feComposite><feGaussianBlur stdDeviation="3.87"></feGaussianBlur><feOffset dx="20" dy="0" result="afterOffset"></feOffset><feFlood flood-color="#9c8f8f" flood-opacity="0.5"></feFlood><feComposite in2="afterOffset" operator="in"></feComposite><feMorphology operator="dilate" radius="1"></feMorphology><feComposite in2="SourceAlpha" operator="out"></feComposite></filter><path d="M261.84 369.7L277.8 369.7L277.8 374.29L237.92 374.29L237.92 369.7L253.87 369.7L253.87 313.25L208.57 261.2L307.14 261.2L261.84 313.25L261.84 369.7ZM217.98 257.44L217.98 252.86L297.73 252.86L297.73 257.44L217.98 257.44Z" id="c7PILWNer" fill="white" fill-opacity="1" filter="url(#shadow11205853)"></path></g><use xlink:href="#amm1jBMQj" opacity="1" fill="#464247" fill-opacity="1"></use><g><use xlink:href="#amm1jBMQj" opacity="1" fill-opacity="0" stroke="#1e0810" stroke-width="1" stroke-opacity="1"></use></g><g><filter id="shadow15873065" x="182.57" y="226.86" width="168.57" height="174.43" filterUnits="userSpaceOnUse" primitiveUnits="userSpaceOnUse"><feFlood></feFlood><feComposite in2="SourceAlpha" operator="out"></feComposite><feGaussianBlur stdDeviation="1"></feGaussianBlur><feOffset dx="18" dy="1" result="afterOffset"></feOffset><feFlood flood-color="#574343" flood-opacity="0.8"></feFlood><feComposite in2="afterOffset" operator="in"></feComposite><feMorphology operator="dilate" radius="1"></feMorphology><feComposite in2="SourceAlpha" operator="in"></feComposite></filter><path d="M261.84 369.7L277.8 369.7L277.8 374.29L237.92 374.29L237.92 369.7L253.87 369.7L253.87 313.25L208.57 261.2L307.14 261.2L261.84 313.25L261.84 369.7ZM217.98 257.44L217.98 252.86L297.73 252.86L297.73 257.44L217.98 257.44Z" id="fblZd0KXS" fill="white" fill-opacity="1" filter="url(#shadow15873065)"></path></g></g><g><g><use xlink:href="#cDGRizxv7" opacity="1" fill-opacity="0" stroke="#1e4b12" stroke-width="1" stroke-opacity="1"></use></g></g><g><g><use xlink:href="#f1e7Jn1EKu" opacity="1" fill-opacity="0" stroke="#1e4b12" stroke-width="1" stroke-opacity="1"></use></g></g><g><use xlink:href="#aZBBgF8wK" opacity="1" fill="#75606e" fill-opacity="1"></use></g><g><use xlink:href="#a7nDMRfmgX" opacity="1" fill="#e99319" fill-opacity="1"></use></g><g><use xlink:href="#h1f1xiUuHy" opacity="1" fill="#75606e" fill-opacity="1"></use></g><g><use xlink:href="#bDSwtp3n" opacity="1" fill="#7a5c71" fill-opacity="1"></use></g><g><use xlink:href="#bcKjEWVVR" opacity="1" fill="#75606e" fill-opacity="1"></use></g><g><use xlink:href="#d1meSngcj" opacity="1" fill="#786075" fill-opacity="1"></use></g><g><use xlink:href="#a1BtxJUcOd" opacity="1" fill="#786075" fill-opacity="1"></use></g><g><use xlink:href="#c5qeRBrgm" opacity="1" fill="#1f4b27" fill-opacity="1"></use></g><g><use xlink:href="#a1GYzwD29i" opacity="1" fill="#7a5d77" fill-opacity="1"></use></g></g></g></svg>